# xmcd
#
# Track frame offsets: 
#        150
#        22224
#        42146
#        64398
#        80915
#        94779
#        111635
#        132534
#        155440
#        176001
#        191854
#
# Disc length: 2915 seconds
#
# Revision: 0
# Processed by: cddbd v1.4PL0 Copyright (c) Steve Scherf et al.
# Submitted via: ExactAudioCopy v0.95a3
#
DISCID=a80b610b
DTITLE=Rich Harper Blues Band - Bottled Up Blues
DYEAR=1999
DGENRE=blues
TTITLE0=Workin' on Me
TTITLE1=Mean Old World
TTITLE2=How Much I Want You
TTITLE3=Wrong Man
TTITLE4=As She Moved In (My Guitar Moved Out)
TTITLE5=All I Got Belongs To You
TTITLE6=Blue Eyed Blues
TTITLE7=Bound To Pay
TTITLE8=Life
TTITLE9=Barrelhouse Stomp
TTITLE10=Train Song
EXTD=
EXTT0=
EXTT1=
EXTT2=
EXTT3=
EXTT4=
EXTT5=
EXTT6=
EXTT7=
EXTT8=
EXTT9=
EXTT10=
PLAYORDER=
